<svg width="134" height="134" viewBox="0 0 134 134" fill="none" xmlns="http://www.w3.org/2000/svg">
<path fill-rule="evenodd" clip-rule="evenodd" d="M133.375 67C133.375 104.003 103.518 134 66.6876 134C29.8571 134 0 104.003 0 67C0 29.9969 29.8571 0 66.6876 0C103.518 0 133.375 29.9969 133.375 67ZM114.464 67C114.464 93.5097 93.0737 115 66.6876 115C40.3016 115 18.9114 93.5097 18.9114 67C18.9114 40.4903 40.3016 19 66.6876 19C93.0737 19 114.464 40.4903 114.464 67Z" fill="#F6F7F9"/>
<mask id="mask0" mask-type="alpha" maskUnits="userSpaceOnUse" x="0" y="0" width="134" height="134">
<path fill-rule="evenodd" clip-rule="evenodd" d="M133.375 67C133.375 104.003 103.518 134 66.6876 134C29.8571 134 0 104.003 0 67C0 29.9969 29.8571 0 66.6876 0C103.518 0 133.375 29.9969 133.375 67ZM114.464 67C114.464 93.5097 93.0737 115 66.6876 115C40.3016 115 18.9114 93.5097 18.9114 67C18.9114 40.4903 40.3016 19 66.6876 19C93.0737 19 114.464 40.4903 114.464 67Z" fill="white"/>
</mask>
<g mask="url(#mask0)">
<rect x="66.6877" y="-15" width="87.5897" height="87" fill="#456AEB"/>
<path d="M65.4206 66.1389L334.156 54.7104L-37.2316 314.759L65.4206 66.1389Z" fill="#31BA7E"/>
</g>
</svg>
