<svg width="1110" height="314" viewBox="0 0 1110 314" fill="none" xmlns="http://www.w3.org/2000/svg">
<g opacity="0.5">
<path opacity="0.756413" d="M57.0291 234.25H1087.21" stroke="#EAEAEA" stroke-linecap="square" stroke-dasharray="2 2 2 2"/>
<path opacity="0.756413" d="M55.261 189.25H1085.44" stroke="#EAEAEA" stroke-linecap="square" stroke-dasharray="2 2 2 2"/>
<path opacity="0.756413" d="M57.0291 143.25H1087.21" stroke="#EAEAEA" stroke-linecap="square" stroke-dasharray="2 2 2 2"/>
<path opacity="0.756413" d="M55.261 97.25H1085.44" stroke="#EAEAEA" stroke-linecap="square" stroke-dasharray="2 2 2 2"/>
<path opacity="0.756413" d="M57.0291 52.25H1087.21" stroke="#EAEAEA" stroke-linecap="square" stroke-dasharray="2 2 2 2"/>
<path opacity="0.756413" d="M55.261 7.25H1085.44" stroke="#EAEAEA" stroke-linecap="square" stroke-dasharray="2 2 2 2"/>
</g>
<path d="M54.519 7.08984V280.5" stroke="#EAEAEA" stroke-linecap="square"/>
<path d="M55.261 280.5H1085.44" stroke="#EAEAEA" stroke-linecap="square"/>
<path d="M15.4556 229.087V230.523C16.0317 230.616 16.5029 230.806 16.8691 231.094C17.2354 231.382 17.5845 231.824 17.9165 232.42L16.4883 233.218C16.0586 232.437 15.4971 232.046 14.8037 232.046C14.374 232.046 14.0176 232.173 13.7344 232.427C13.4512 232.681 13.3096 232.999 13.3096 233.379C13.3096 233.726 13.4243 234.014 13.6538 234.244C13.8784 234.468 14.3325 234.734 15.0161 235.042C15.6069 235.311 16.0952 235.564 16.481 235.804C16.8667 236.038 17.1572 236.265 17.3525 236.485C17.9043 237.081 18.1802 237.801 18.1802 238.646C18.1802 239.476 17.9312 240.208 17.4331 240.843C16.9399 241.473 16.2808 241.897 15.4556 242.117V243.633H14.1738V242.161C13.2168 242.005 12.4868 241.675 11.9839 241.172C11.481 240.669 11.1099 239.893 10.8706 238.843L12.4819 238.506C12.7017 239.249 12.9702 239.778 13.2876 240.096C13.6196 240.398 14.0615 240.55 14.6133 240.55C15.1504 240.55 15.5996 240.376 15.9609 240.03C16.3174 239.688 16.4956 239.246 16.4956 238.704C16.4956 238.221 16.3467 237.833 16.0488 237.54C15.8975 237.398 15.6729 237.239 15.375 237.063C15.082 236.883 14.7061 236.688 14.2471 236.478C13.2998 236.053 12.6772 235.662 12.3794 235.306C11.9058 234.773 11.6689 234.136 11.6689 233.394C11.6689 233.042 11.7251 232.715 11.8374 232.413C11.9497 232.11 12.1108 231.836 12.3208 231.592C12.5356 231.343 12.7993 231.128 13.1118 230.948C13.4243 230.767 13.7783 230.625 14.1738 230.523V229.087H15.4556ZM27.1597 232.288H23.6733L23.1167 234.163C23.1997 234.153 23.2778 234.146 23.3511 234.141C23.4292 234.136 23.5 234.134 23.5635 234.134C24.6621 234.134 25.563 234.505 26.2661 235.247C26.9741 235.984 27.3281 236.929 27.3281 238.082C27.3281 239.273 26.9277 240.254 26.127 241.026C25.3262 241.797 24.3179 242.183 23.1021 242.183C21.603 242.183 20.4214 241.48 19.5571 240.074L20.8462 238.982C21.2026 239.588 21.5615 240.015 21.9229 240.264C22.2842 240.508 22.7261 240.63 23.2485 240.63C23.9321 240.63 24.5059 240.391 24.9697 239.913C25.4336 239.419 25.6655 238.821 25.6655 238.118C25.6655 237.396 25.436 236.805 24.9771 236.346C24.5181 235.872 23.9443 235.635 23.2559 235.635C22.4893 235.635 21.8276 235.97 21.271 236.639H20.707L22.4868 230.691H27.1597V232.288ZM31.2173 229.629V237.173L33.5391 234.866H35.751L32.6528 237.862L35.978 242H33.8394L31.481 238.99L31.2173 239.253V242H29.5693V229.629H31.2173Z" fill="#878F9B"/>
<path d="M27.3794 281.272C27.3794 279.471 27.7993 278.033 28.6392 276.958C29.3911 275.987 30.3018 275.501 31.3711 275.501C32.4404 275.501 33.3511 275.987 34.103 276.958C34.9429 278.033 35.3628 279.495 35.3628 281.346C35.3628 283.191 34.9429 284.651 34.103 285.726C33.3511 286.697 32.4429 287.183 31.3784 287.183C30.314 287.183 29.4009 286.697 28.6392 285.726C27.7993 284.651 27.3794 283.167 27.3794 281.272ZM29.0566 281.28C29.0566 282.535 29.2739 283.577 29.7085 284.407C30.1431 285.223 30.6973 285.63 31.3711 285.63C32.04 285.63 32.5942 285.223 33.0337 284.407C33.4731 283.597 33.6929 282.574 33.6929 281.338C33.6929 280.103 33.4731 279.078 33.0337 278.262C32.5942 277.452 32.04 277.046 31.3711 277.046C30.707 277.046 30.1553 277.452 29.7158 278.262C29.2764 279.068 29.0566 280.074 29.0566 281.28Z" fill="#878F9B"/>
<path d="M7.10596 184.087V185.523C7.68213 185.616 8.15332 185.806 8.51953 186.094C8.88574 186.382 9.23486 186.824 9.56689 187.42L8.13867 188.218C7.70898 187.437 7.14746 187.046 6.4541 187.046C6.02441 187.046 5.66797 187.173 5.38477 187.427C5.10156 187.681 4.95996 187.999 4.95996 188.379C4.95996 188.726 5.07471 189.014 5.3042 189.244C5.52881 189.468 5.98291 189.734 6.6665 190.042C7.25732 190.311 7.74561 190.564 8.13135 190.804C8.51709 191.038 8.80762 191.265 9.00293 191.485C9.55469 192.081 9.83057 192.801 9.83057 193.646C9.83057 194.476 9.58154 195.208 9.0835 195.843C8.59033 196.473 7.93115 196.897 7.10596 197.117V198.633H5.82422V197.161C4.86719 197.005 4.13721 196.675 3.63428 196.172C3.13135 195.669 2.76025 194.893 2.521 193.843L4.13232 193.506C4.35205 194.249 4.62061 194.778 4.93799 195.096C5.27002 195.398 5.71191 195.55 6.26367 195.55C6.80078 195.55 7.25 195.376 7.61133 195.03C7.96777 194.688 8.146 194.246 8.146 193.704C8.146 193.221 7.99707 192.833 7.69922 192.54C7.54785 192.398 7.32324 192.239 7.02539 192.063C6.73242 191.883 6.35645 191.688 5.89746 191.478C4.9502 191.053 4.32764 190.662 4.02979 190.306C3.55615 189.773 3.31934 189.136 3.31934 188.394C3.31934 188.042 3.37549 187.715 3.48779 187.413C3.6001 187.11 3.76123 186.836 3.97119 186.592C4.18604 186.343 4.44971 186.128 4.76221 185.948C5.07471 185.767 5.42871 185.625 5.82422 185.523V184.087H7.10596ZM14.9868 187.288H13.0312L13.9688 185.691H16.6934V197H14.9868V187.288ZM19.9087 191.272C19.9087 189.471 20.3286 188.033 21.1685 186.958C21.9204 185.987 22.8311 185.501 23.9004 185.501C24.9697 185.501 25.8804 185.987 26.6323 186.958C27.4722 188.033 27.8921 189.495 27.8921 191.346C27.8921 193.191 27.4722 194.651 26.6323 195.726C25.8804 196.697 24.9722 197.183 23.9077 197.183C22.8433 197.183 21.9302 196.697 21.1685 195.726C20.3286 194.651 19.9087 193.167 19.9087 191.272ZM21.5859 191.28C21.5859 192.535 21.8032 193.577 22.2378 194.407C22.6724 195.223 23.2266 195.63 23.9004 195.63C24.5693 195.63 25.1235 195.223 25.563 194.407C26.0024 193.597 26.2222 192.574 26.2222 191.338C26.2222 190.103 26.0024 189.078 25.563 188.262C25.1235 187.452 24.5693 187.046 23.9004 187.046C23.2363 187.046 22.6846 187.452 22.2451 188.262C21.8057 189.068 21.5859 190.074 21.5859 191.28ZM31.2173 184.629V192.173L33.5391 189.866H35.751L32.6528 192.862L35.978 197H33.8394L31.481 193.99L31.2173 194.253V197H29.5693V184.629H31.2173Z" fill="#878F9B"/>
<path d="M7.38428 139.087V140.523C7.96045 140.616 8.43164 140.806 8.79785 141.094C9.16406 141.382 9.51318 141.824 9.84521 142.42L8.41699 143.218C7.9873 142.437 7.42578 142.046 6.73242 142.046C6.30273 142.046 5.94629 142.173 5.66309 142.427C5.37988 142.681 5.23828 142.999 5.23828 143.379C5.23828 143.726 5.35303 144.014 5.58252 144.244C5.80713 144.468 6.26123 144.734 6.94482 145.042C7.53564 145.311 8.02393 145.564 8.40967 145.804C8.79541 146.038 9.08594 146.265 9.28125 146.485C9.83301 147.081 10.1089 147.801 10.1089 148.646C10.1089 149.476 9.85986 150.208 9.36182 150.843C8.86865 151.473 8.20947 151.897 7.38428 152.117V153.633H6.10254V152.161C5.14551 152.005 4.41553 151.675 3.9126 151.172C3.40967 150.669 3.03857 149.893 2.79932 148.843L4.41064 148.506C4.63037 149.249 4.89893 149.778 5.21631 150.096C5.54834 150.398 5.99023 150.55 6.54199 150.55C7.0791 150.55 7.52832 150.376 7.88965 150.03C8.24609 149.688 8.42432 149.246 8.42432 148.704C8.42432 148.221 8.27539 147.833 7.97754 147.54C7.82617 147.398 7.60156 147.239 7.30371 147.063C7.01074 146.883 6.63477 146.688 6.17578 146.478C5.22852 146.053 4.60596 145.662 4.30811 145.306C3.83447 144.773 3.59766 144.136 3.59766 143.394C3.59766 143.042 3.65381 142.715 3.76611 142.413C3.87842 142.11 4.03955 141.836 4.24951 141.592C4.46436 141.343 4.72803 141.128 5.04053 140.948C5.35303 140.767 5.70703 140.625 6.10254 140.523V139.087H7.38428ZM15.2651 142.288H13.3096L14.2471 140.691H16.9717V152H15.2651V142.288ZM27.1597 142.288H23.6733L23.1167 144.163C23.1997 144.153 23.2778 144.146 23.3511 144.141C23.4292 144.136 23.5 144.134 23.5635 144.134C24.6621 144.134 25.563 144.505 26.2661 145.247C26.9741 145.984 27.3281 146.929 27.3281 148.082C27.3281 149.273 26.9277 150.254 26.127 151.026C25.3262 151.797 24.3179 152.183 23.1021 152.183C21.603 152.183 20.4214 151.48 19.5571 150.074L20.8462 148.982C21.2026 149.588 21.5615 150.015 21.9229 150.264C22.2842 150.508 22.7261 150.63 23.2485 150.63C23.9321 150.63 24.5059 150.391 24.9697 149.913C25.4336 149.419 25.6655 148.821 25.6655 148.118C25.6655 147.396 25.436 146.805 24.9771 146.346C24.5181 145.872 23.9443 145.635 23.2559 145.635C22.4893 145.635 21.8276 145.97 21.271 146.639H20.707L22.4868 140.691H27.1597V142.288ZM31.2173 139.629V147.173L33.5391 144.866H35.751L32.6528 147.862L35.978 152H33.8394L31.481 148.99L31.2173 149.253V152H29.5693V139.629H31.2173Z" fill="#878F9B"/>
<path d="M6.19775 94.0874V95.5229C6.77393 95.6157 7.24512 95.8062 7.61133 96.0942C7.97754 96.3823 8.32666 96.8242 8.65869 97.4199L7.23047 98.2183C6.80078 97.437 6.23926 97.0464 5.5459 97.0464C5.11621 97.0464 4.75977 97.1733 4.47656 97.4272C4.19336 97.6812 4.05176 97.9985 4.05176 98.3794C4.05176 98.7261 4.1665 99.0142 4.396 99.2437C4.62061 99.4683 5.07471 99.7344 5.7583 100.042C6.34912 100.311 6.8374 100.564 7.22314 100.804C7.60889 101.038 7.89941 101.265 8.09473 101.485C8.64648 102.081 8.92236 102.801 8.92236 103.646C8.92236 104.476 8.67334 105.208 8.17529 105.843C7.68213 106.473 7.02295 106.897 6.19775 107.117V108.633H4.91602V107.161C3.95898 107.005 3.229 106.675 2.72607 106.172C2.22314 105.669 1.85205 104.893 1.61279 103.843L3.22412 103.506C3.44385 104.249 3.7124 104.778 4.02979 105.096C4.36182 105.398 4.80371 105.55 5.35547 105.55C5.89258 105.55 6.3418 105.376 6.70312 105.03C7.05957 104.688 7.23779 104.246 7.23779 103.704C7.23779 103.221 7.08887 102.833 6.79102 102.54C6.63965 102.398 6.41504 102.239 6.11719 102.063C5.82422 101.883 5.44824 101.688 4.98926 101.478C4.04199 101.053 3.41943 100.662 3.12158 100.306C2.64795 99.7734 2.41113 99.1362 2.41113 98.394C2.41113 98.0425 2.46729 97.7153 2.57959 97.4126C2.69189 97.1099 2.85303 96.8364 3.06299 96.5923C3.27783 96.3433 3.5415 96.1284 3.854 95.9478C4.1665 95.7671 4.52051 95.6255 4.91602 95.5229V94.0874H6.19775ZM13.771 105.396H17.9824V107H10.3872L14.313 102.247C14.6987 101.773 15.021 101.363 15.2798 101.016C15.5435 100.669 15.7437 100.379 15.8804 100.145C16.1587 99.6855 16.2979 99.2729 16.2979 98.9067C16.2979 98.3794 16.1123 97.9375 15.7412 97.5811C15.3701 97.2246 14.9111 97.0464 14.3643 97.0464C13.2217 97.0464 12.5674 97.7227 12.4014 99.0752H10.7021C10.9756 96.6924 12.1792 95.501 14.313 95.501C15.3433 95.501 16.2075 95.8281 16.9058 96.4824C17.6089 97.1367 17.9604 97.9473 17.9604 98.9141C17.9604 99.5293 17.7969 100.132 17.4697 100.723C17.3037 101.031 17.0596 101.397 16.7373 101.822C16.4199 102.242 16.0171 102.74 15.5288 103.316L13.771 105.396ZM19.9087 101.272C19.9087 99.4707 20.3286 98.0327 21.1685 96.9585C21.9204 95.9868 22.8311 95.501 23.9004 95.501C24.9697 95.501 25.8804 95.9868 26.6323 96.9585C27.4722 98.0327 27.8921 99.4951 27.8921 101.346C27.8921 103.191 27.4722 104.651 26.6323 105.726C25.8804 106.697 24.9722 107.183 23.9077 107.183C22.8433 107.183 21.9302 106.697 21.1685 105.726C20.3286 104.651 19.9087 103.167 19.9087 101.272ZM21.5859 101.28C21.5859 102.535 21.8032 103.577 22.2378 104.407C22.6724 105.223 23.2266 105.63 23.9004 105.63C24.5693 105.63 25.1235 105.223 25.563 104.407C26.0024 103.597 26.2222 102.574 26.2222 101.338C26.2222 100.103 26.0024 99.0776 25.563 98.2622C25.1235 97.4517 24.5693 97.0464 23.9004 97.0464C23.2363 97.0464 22.6846 97.4517 22.2451 98.2622C21.8057 99.0679 21.5859 100.074 21.5859 101.28ZM31.2173 94.6294V102.173L33.5391 99.8662H35.751L32.6528 102.862L35.978 107H33.8394L31.481 103.99L31.2173 104.253V107H29.5693V94.6294H31.2173Z" fill="#878F9B"/>
<path d="M6.19775 49.0874V50.5229C6.77393 50.6157 7.24512 50.8062 7.61133 51.0942C7.97754 51.3823 8.32666 51.8242 8.65869 52.4199L7.23047 53.2183C6.80078 52.437 6.23926 52.0464 5.5459 52.0464C5.11621 52.0464 4.75977 52.1733 4.47656 52.4272C4.19336 52.6812 4.05176 52.9985 4.05176 53.3794C4.05176 53.7261 4.1665 54.0142 4.396 54.2437C4.62061 54.4683 5.07471 54.7344 5.7583 55.042C6.34912 55.3105 6.8374 55.5645 7.22314 55.8037C7.60889 56.0381 7.89941 56.2651 8.09473 56.4849C8.64648 57.0806 8.92236 57.8008 8.92236 58.6455C8.92236 59.4756 8.67334 60.208 8.17529 60.8428C7.68213 61.4727 7.02295 61.8975 6.19775 62.1172V63.6333H4.91602V62.1611C3.95898 62.0049 3.229 61.6753 2.72607 61.1724C2.22314 60.6694 1.85205 59.8931 1.61279 58.8433L3.22412 58.5063C3.44385 59.2485 3.7124 59.7783 4.02979 60.0957C4.36182 60.3984 4.80371 60.5498 5.35547 60.5498C5.89258 60.5498 6.3418 60.3765 6.70312 60.0298C7.05957 59.688 7.23779 59.2461 7.23779 58.7041C7.23779 58.2207 7.08887 57.8325 6.79102 57.5396C6.63965 57.3979 6.41504 57.2393 6.11719 57.0635C5.82422 56.8828 5.44824 56.6875 4.98926 56.4775C4.04199 56.0527 3.41943 55.6621 3.12158 55.3057C2.64795 54.7734 2.41113 54.1362 2.41113 53.394C2.41113 53.0425 2.46729 52.7153 2.57959 52.4126C2.69189 52.1099 2.85303 51.8364 3.06299 51.5923C3.27783 51.3433 3.5415 51.1284 3.854 50.9478C4.1665 50.7671 4.52051 50.6255 4.91602 50.5229V49.0874H6.19775ZM13.771 60.396H17.9824V62H10.3872L14.313 57.2466C14.6987 56.7729 15.021 56.3628 15.2798 56.0161C15.5435 55.6694 15.7437 55.3789 15.8804 55.1445C16.1587 54.6855 16.2979 54.2729 16.2979 53.9067C16.2979 53.3794 16.1123 52.9375 15.7412 52.5811C15.3701 52.2246 14.9111 52.0464 14.3643 52.0464C13.2217 52.0464 12.5674 52.7227 12.4014 54.0752H10.7021C10.9756 51.6924 12.1792 50.501 14.313 50.501C15.3433 50.501 16.2075 50.8281 16.9058 51.4824C17.6089 52.1367 17.9604 52.9473 17.9604 53.9141C17.9604 54.5293 17.7969 55.1323 17.4697 55.7231C17.3037 56.0308 17.0596 56.397 16.7373 56.8218C16.4199 57.2417 16.0171 57.7397 15.5288 58.3159L13.771 60.396ZM27.1597 52.2881H23.6733L23.1167 54.1631C23.1997 54.1533 23.2778 54.146 23.3511 54.1411C23.4292 54.1362 23.5 54.1338 23.5635 54.1338C24.6621 54.1338 25.563 54.5049 26.2661 55.2471C26.9741 55.9844 27.3281 56.9292 27.3281 58.0815C27.3281 59.2729 26.9277 60.2544 26.127 61.0259C25.3262 61.7974 24.3179 62.1831 23.1021 62.1831C21.603 62.1831 20.4214 61.48 19.5571 60.0737L20.8462 58.9824C21.2026 59.5879 21.5615 60.0151 21.9229 60.2642C22.2842 60.5083 22.7261 60.6304 23.2485 60.6304C23.9321 60.6304 24.5059 60.3911 24.9697 59.9126C25.4336 59.4194 25.6655 58.8213 25.6655 58.1182C25.6655 57.3955 25.436 56.8047 24.9771 56.3457C24.5181 55.8721 23.9443 55.6353 23.2559 55.6353C22.4893 55.6353 21.8276 55.9697 21.271 56.6387H20.707L22.4868 50.6914H27.1597V52.2881ZM31.2173 49.6294V57.1733L33.5391 54.8662H35.751L32.6528 57.8618L35.978 62H33.8394L31.481 58.9897L31.2173 59.2534V62H29.5693V49.6294H31.2173Z" fill="#878F9B"/>
<path d="M6.19775 4.0874V5.52295C6.77393 5.61572 7.24512 5.80615 7.61133 6.09424C7.97754 6.38232 8.32666 6.82422 8.65869 7.41992L7.23047 8.21826C6.80078 7.43701 6.23926 7.04639 5.5459 7.04639C5.11621 7.04639 4.75977 7.17334 4.47656 7.42725C4.19336 7.68115 4.05176 7.99854 4.05176 8.37939C4.05176 8.72607 4.1665 9.01416 4.396 9.24365C4.62061 9.46826 5.07471 9.73438 5.7583 10.042C6.34912 10.3105 6.8374 10.5645 7.22314 10.8037C7.60889 11.0381 7.89941 11.2651 8.09473 11.4849C8.64648 12.0806 8.92236 12.8008 8.92236 13.6455C8.92236 14.4756 8.67334 15.208 8.17529 15.8428C7.68213 16.4727 7.02295 16.8975 6.19775 17.1172V18.6333H4.91602V17.1611C3.95898 17.0049 3.229 16.6753 2.72607 16.1724C2.22314 15.6694 1.85205 14.8931 1.61279 13.8433L3.22412 13.5063C3.44385 14.2485 3.7124 14.7783 4.02979 15.0957C4.36182 15.3984 4.80371 15.5498 5.35547 15.5498C5.89258 15.5498 6.3418 15.3765 6.70312 15.0298C7.05957 14.688 7.23779 14.2461 7.23779 13.7041C7.23779 13.2207 7.08887 12.8325 6.79102 12.5396C6.63965 12.3979 6.41504 12.2393 6.11719 12.0635C5.82422 11.8828 5.44824 11.6875 4.98926 11.4775C4.04199 11.0527 3.41943 10.6621 3.12158 10.3057C2.64795 9.77344 2.41113 9.13623 2.41113 8.39404C2.41113 8.04248 2.46729 7.71533 2.57959 7.4126C2.69189 7.10986 2.85303 6.83643 3.06299 6.59229C3.27783 6.34326 3.5415 6.12842 3.854 5.94775C4.1665 5.76709 4.52051 5.62549 4.91602 5.52295V4.0874H6.19775ZM13.8955 11.7485V10.291C14.6182 10.291 15.104 10.2104 15.353 10.0493C15.7974 9.76611 16.0195 9.31201 16.0195 8.68701C16.0195 8.20361 15.8584 7.81055 15.5361 7.50781C15.2188 7.2002 14.8062 7.04639 14.2983 7.04639C13.8247 7.04639 13.4585 7.16113 13.1997 7.39062C12.9507 7.625 12.7651 8.02051 12.6431 8.57715H10.9438C11.1196 7.5127 11.481 6.73389 12.0278 6.24072C12.5747 5.74268 13.3389 5.49365 14.3203 5.49365C15.3115 5.49365 16.1196 5.78662 16.7446 6.37256C17.3696 6.95361 17.6821 7.70313 17.6821 8.62109C17.6821 9.65625 17.272 10.4619 16.4517 11.0381C17.3892 11.5898 17.8579 12.4858 17.8579 13.7261C17.8579 14.7417 17.5161 15.5718 16.8325 16.2163C16.1489 16.8608 15.2725 17.1831 14.2031 17.1831C12.8408 17.1831 11.8301 16.6826 11.1709 15.6816C10.8975 15.2617 10.7241 14.6807 10.6509 13.9385H12.2988C12.3867 14.4854 12.5991 14.9053 12.936 15.1982C13.2778 15.4863 13.7222 15.6304 14.269 15.6304C14.8208 15.6304 15.2773 15.4473 15.6387 15.0811C16 14.7051 16.1807 14.229 16.1807 13.6528C16.1807 12.8911 15.9097 12.3491 15.3677 12.0269C15.0503 11.8413 14.5596 11.7485 13.8955 11.7485ZM19.9087 11.2725C19.9087 9.4707 20.3286 8.03271 21.1685 6.9585C21.9204 5.98682 22.8311 5.50098 23.9004 5.50098C24.9697 5.50098 25.8804 5.98682 26.6323 6.9585C27.4722 8.03271 27.8921 9.49512 27.8921 11.3457C27.8921 13.1914 27.4722 14.6514 26.6323 15.7256C25.8804 16.6973 24.9722 17.1831 23.9077 17.1831C22.8433 17.1831 21.9302 16.6973 21.1685 15.7256C20.3286 14.6514 19.9087 13.167 19.9087 11.2725ZM21.5859 11.2798C21.5859 12.5347 21.8032 13.5771 22.2378 14.4072C22.6724 15.2227 23.2266 15.6304 23.9004 15.6304C24.5693 15.6304 25.1235 15.2227 25.563 14.4072C26.0024 13.5967 26.2222 12.5737 26.2222 11.3384C26.2222 10.103 26.0024 9.07764 25.563 8.26221C25.1235 7.45166 24.5693 7.04639 23.9004 7.04639C23.2363 7.04639 22.6846 7.45166 22.2451 8.26221C21.8057 9.06787 21.5859 10.0737 21.5859 11.2798ZM31.2173 4.62939V12.1733L33.5391 9.86621H35.751L32.6528 12.8618L35.978 17H33.8394L31.481 13.9897L31.2173 14.2534V17H29.5693V4.62939H31.2173Z" fill="#878F9B"/>
<path d="M52.958 303.272C52.958 301.471 53.3779 300.033 54.2178 298.958C54.9697 297.987 55.8804 297.501 56.9497 297.501C58.019 297.501 58.9297 297.987 59.6816 298.958C60.5215 300.033 60.9414 301.495 60.9414 303.346C60.9414 305.191 60.5215 306.651 59.6816 307.726C58.9297 308.697 58.0215 309.183 56.957 309.183C55.8926 309.183 54.9795 308.697 54.2178 307.726C53.3779 306.651 52.958 305.167 52.958 303.272ZM54.6353 303.28C54.6353 304.535 54.8525 305.577 55.2871 306.407C55.7217 307.223 56.2759 307.63 56.9497 307.63C57.6187 307.63 58.1729 307.223 58.6123 306.407C59.0518 305.597 59.2715 304.574 59.2715 303.338C59.2715 302.103 59.0518 301.078 58.6123 300.262C58.1729 299.452 57.6187 299.046 56.9497 299.046C56.2856 299.046 55.7339 299.452 55.2944 300.262C54.855 301.068 54.6353 302.074 54.6353 303.28ZM64.4863 299.288H62.5308L63.4683 297.691H66.1929V309H64.4863V299.288Z" fill="#878F9B"/>
<path d="M107.879 303.272C107.879 301.471 108.299 300.033 109.139 298.958C109.891 297.987 110.802 297.501 111.871 297.501C112.94 297.501 113.851 297.987 114.603 298.958C115.443 300.033 115.863 301.495 115.863 303.346C115.863 305.191 115.443 306.651 114.603 307.726C113.851 308.697 112.943 309.183 111.878 309.183C110.814 309.183 109.901 308.697 109.139 307.726C108.299 306.651 107.879 305.167 107.879 303.272ZM109.557 303.28C109.557 304.535 109.774 305.577 110.208 306.407C110.643 307.223 111.197 307.63 111.871 307.63C112.54 307.63 113.094 307.223 113.534 306.407C113.973 305.597 114.193 304.574 114.193 303.338C114.193 302.103 113.973 301.078 113.534 300.262C113.094 299.452 112.54 299.046 111.871 299.046C111.207 299.046 110.655 299.452 110.216 300.262C109.776 301.068 109.557 302.074 109.557 303.28ZM120.257 307.396H124.469V309H116.874L120.799 304.247C121.185 303.773 121.507 303.363 121.766 303.016C122.03 302.669 122.23 302.379 122.367 302.145C122.645 301.686 122.784 301.273 122.784 300.907C122.784 300.379 122.599 299.938 122.228 299.581C121.856 299.225 121.397 299.046 120.851 299.046C119.708 299.046 119.054 299.723 118.888 301.075H117.188C117.462 298.692 118.666 297.501 120.799 297.501C121.83 297.501 122.694 297.828 123.392 298.482C124.095 299.137 124.447 299.947 124.447 300.914C124.447 301.529 124.283 302.132 123.956 302.723C123.79 303.031 123.546 303.397 123.224 303.822C122.906 304.242 122.503 304.74 122.015 305.316L120.257 307.396Z" fill="#878F9B"/>
<path d="M168.879 303.272C168.879 301.471 169.299 300.033 170.139 298.958C170.891 297.987 171.802 297.501 172.871 297.501C173.94 297.501 174.851 297.987 175.603 298.958C176.443 300.033 176.863 301.495 176.863 303.346C176.863 305.191 176.443 306.651 175.603 307.726C174.851 308.697 173.943 309.183 172.878 309.183C171.814 309.183 170.901 308.697 170.139 307.726C169.299 306.651 168.879 305.167 168.879 303.272ZM170.557 303.28C170.557 304.535 170.774 305.577 171.208 306.407C171.643 307.223 172.197 307.63 172.871 307.63C173.54 307.63 174.094 307.223 174.534 306.407C174.973 305.597 175.193 304.574 175.193 303.338C175.193 302.103 174.973 301.078 174.534 300.262C174.094 299.452 173.54 299.046 172.871 299.046C172.207 299.046 171.655 299.452 171.216 300.262C170.776 301.068 170.557 302.074 170.557 303.28ZM181.382 303.749V302.291C182.104 302.291 182.59 302.21 182.839 302.049C183.284 301.766 183.506 301.312 183.506 300.687C183.506 300.204 183.345 299.811 183.022 299.508C182.705 299.2 182.292 299.046 181.785 299.046C181.311 299.046 180.945 299.161 180.686 299.391C180.437 299.625 180.251 300.021 180.129 300.577H178.43C178.606 299.513 178.967 298.734 179.514 298.241C180.061 297.743 180.825 297.494 181.807 297.494C182.798 297.494 183.606 297.787 184.231 298.373C184.856 298.954 185.168 299.703 185.168 300.621C185.168 301.656 184.758 302.462 183.938 303.038C184.875 303.59 185.344 304.486 185.344 305.726C185.344 306.742 185.002 307.572 184.319 308.216C183.635 308.861 182.759 309.183 181.689 309.183C180.327 309.183 179.316 308.683 178.657 307.682C178.384 307.262 178.21 306.681 178.137 305.938H179.785C179.873 306.485 180.085 306.905 180.422 307.198C180.764 307.486 181.208 307.63 181.755 307.63C182.307 307.63 182.764 307.447 183.125 307.081C183.486 306.705 183.667 306.229 183.667 305.653C183.667 304.891 183.396 304.349 182.854 304.027C182.537 303.841 182.046 303.749 181.382 303.749Z" fill="#878F9B"/>
<path d="M229.019 303.272C229.019 301.471 229.438 300.033 230.278 298.958C231.03 297.987 231.941 297.501 233.01 297.501C234.08 297.501 234.99 297.987 235.742 298.958C236.582 300.033 237.002 301.495 237.002 303.346C237.002 305.191 236.582 306.651 235.742 307.726C234.99 308.697 234.082 309.183 233.018 309.183C231.953 309.183 231.04 308.697 230.278 307.726C229.438 306.651 229.019 305.167 229.019 303.272ZM230.696 303.28C230.696 304.535 230.913 305.577 231.348 306.407C231.782 307.223 232.336 307.63 233.01 307.63C233.679 307.63 234.233 307.223 234.673 306.407C235.112 305.597 235.332 304.574 235.332 303.338C235.332 302.103 235.112 301.078 234.673 300.262C234.233 299.452 233.679 299.046 233.01 299.046C232.346 299.046 231.794 299.452 231.355 300.262C230.916 301.068 230.696 302.074 230.696 303.28ZM244.758 305.843H245.959V307.396H244.758V309H243.052V307.396H237.5L244.758 296.849V305.843ZM243.052 305.843V302.057L240.444 305.843H243.052Z" fill="#878F9B"/>
<path d="M290.379 303.272C290.379 301.471 290.799 300.033 291.639 298.958C292.391 297.987 293.302 297.501 294.371 297.501C295.44 297.501 296.351 297.987 297.103 298.958C297.943 300.033 298.363 301.495 298.363 303.346C298.363 305.191 297.943 306.651 297.103 307.726C296.351 308.697 295.443 309.183 294.378 309.183C293.314 309.183 292.401 308.697 291.639 307.726C290.799 306.651 290.379 305.167 290.379 303.272ZM292.057 303.28C292.057 304.535 292.274 305.577 292.708 306.407C293.143 307.223 293.697 307.63 294.371 307.63C295.04 307.63 295.594 307.223 296.034 306.407C296.473 305.597 296.693 304.574 296.693 303.338C296.693 302.103 296.473 301.078 296.034 300.262C295.594 299.452 295.04 299.046 294.371 299.046C293.707 299.046 293.155 299.452 292.716 300.262C292.276 301.068 292.057 302.074 292.057 303.28ZM306.888 299.288H303.402L302.845 301.163C302.928 301.153 303.006 301.146 303.08 301.141C303.158 301.136 303.229 301.134 303.292 301.134C304.391 301.134 305.292 301.505 305.995 302.247C306.703 302.984 307.057 303.929 307.057 305.082C307.057 306.273 306.656 307.254 305.855 308.026C305.055 308.797 304.046 309.183 302.831 309.183C301.332 309.183 300.15 308.48 299.286 307.074L300.575 305.982C300.931 306.588 301.29 307.015 301.651 307.264C302.013 307.508 302.455 307.63 302.977 307.63C303.661 307.63 304.234 307.391 304.698 306.913C305.162 306.419 305.394 305.821 305.394 305.118C305.394 304.396 305.165 303.805 304.706 303.346C304.247 302.872 303.673 302.635 302.984 302.635C302.218 302.635 301.556 302.97 301 303.639H300.436L302.215 297.691H306.888V299.288Z" fill="#878F9B"/>
<path d="M350.379 303.272C350.379 301.471 350.799 300.033 351.639 298.958C352.391 297.987 353.302 297.501 354.371 297.501C355.44 297.501 356.351 297.987 357.103 298.958C357.943 300.033 358.363 301.495 358.363 303.346C358.363 305.191 357.943 306.651 357.103 307.726C356.351 308.697 355.443 309.183 354.378 309.183C353.314 309.183 352.401 308.697 351.639 307.726C350.799 306.651 350.379 305.167 350.379 303.272ZM352.057 303.28C352.057 304.535 352.274 305.577 352.708 306.407C353.143 307.223 353.697 307.63 354.371 307.63C355.04 307.63 355.594 307.223 356.034 306.407C356.473 305.597 356.693 304.574 356.693 303.338C356.693 302.103 356.473 301.078 356.034 300.262C355.594 299.452 355.04 299.046 354.371 299.046C353.707 299.046 353.155 299.452 352.716 300.262C352.276 301.068 352.057 302.074 352.057 303.28ZM364.889 297.296L366.141 298.233L363.438 301.91C363.585 301.891 363.709 301.876 363.812 301.866C363.915 301.856 363.995 301.852 364.054 301.852C364.972 301.852 365.765 302.203 366.434 302.906C367.098 303.6 367.43 304.435 367.43 305.411C367.43 306.446 367.059 307.335 366.317 308.077C365.58 308.814 364.693 309.183 363.658 309.183C362.633 309.183 361.734 308.819 360.963 308.092C360.206 307.364 359.828 306.502 359.828 305.506C359.828 304.613 360.196 303.666 360.934 302.665L364.889 297.296ZM365.768 305.521C365.768 304.92 365.56 304.413 365.145 303.998C364.725 303.578 364.22 303.368 363.629 303.368C363.033 303.368 362.528 303.575 362.113 303.99C361.698 304.405 361.49 304.908 361.49 305.499C361.49 306.09 361.698 306.593 362.113 307.008C362.528 307.423 363.036 307.63 363.636 307.63C364.222 307.63 364.723 307.423 365.138 307.008C365.558 306.588 365.768 306.092 365.768 305.521Z" fill="#878F9B"/>
<path d="M410.621 303.272C410.621 301.471 411.041 300.033 411.881 298.958C412.633 297.987 413.543 297.501 414.613 297.501C415.682 297.501 416.593 297.987 417.345 298.958C418.185 300.033 418.604 301.495 418.604 303.346C418.604 305.191 418.185 306.651 417.345 307.726C416.593 308.697 415.685 309.183 414.62 309.183C413.556 309.183 412.643 308.697 411.881 307.726C411.041 306.651 410.621 305.167 410.621 303.272ZM412.298 303.28C412.298 304.535 412.516 305.577 412.95 306.407C413.385 307.223 413.939 307.63 414.613 307.63C415.282 307.63 415.836 307.223 416.275 306.407C416.715 305.597 416.935 304.574 416.935 303.338C416.935 302.103 416.715 301.078 416.275 300.262C415.836 299.452 415.282 299.046 414.613 299.046C413.949 299.046 413.397 299.452 412.958 300.262C412.518 301.068 412.298 302.074 412.298 303.28ZM425.116 299.288H419.535V297.691H427.965L420.831 309.388L419.476 308.531L425.116 299.288Z" fill="#878F9B"/>
<path d="M473.379 303.272C473.379 301.471 473.799 300.033 474.639 298.958C475.391 297.987 476.302 297.501 477.371 297.501C478.44 297.501 479.351 297.987 480.103 298.958C480.943 300.033 481.363 301.495 481.363 303.346C481.363 305.191 480.943 306.651 480.103 307.726C479.351 308.697 478.443 309.183 477.378 309.183C476.314 309.183 475.401 308.697 474.639 307.726C473.799 306.651 473.379 305.167 473.379 303.272ZM475.057 303.28C475.057 304.535 475.274 305.577 475.708 306.407C476.143 307.223 476.697 307.63 477.371 307.63C478.04 307.63 478.594 307.223 479.034 306.407C479.473 305.597 479.693 304.574 479.693 303.338C479.693 302.103 479.473 301.078 479.034 300.262C478.594 299.452 478.04 299.046 477.371 299.046C476.707 299.046 476.155 299.452 475.716 300.262C475.276 301.068 475.057 302.074 475.057 303.28ZM484.607 303.119C483.777 302.533 483.362 301.734 483.362 300.724C483.362 299.806 483.677 299.039 484.307 298.424C484.942 297.809 485.73 297.501 486.673 297.501C487.61 297.501 488.392 297.809 489.017 298.424C489.642 299.034 489.954 299.803 489.954 300.731C489.954 301.703 489.542 302.496 488.716 303.111C489.17 303.355 489.527 303.712 489.786 304.181C490.049 304.649 490.181 305.177 490.181 305.763C490.181 306.764 489.854 307.584 489.2 308.224C488.545 308.863 487.708 309.183 486.688 309.183C485.643 309.183 484.781 308.861 484.102 308.216C483.418 307.572 483.077 306.761 483.077 305.785C483.077 304.515 483.587 303.626 484.607 303.119ZM484.966 300.716C484.966 301.2 485.13 301.605 485.457 301.932C485.789 302.264 486.189 302.43 486.658 302.43C487.122 302.43 487.52 302.264 487.852 301.932C488.184 301.6 488.35 301.202 488.35 300.738C488.35 300.274 488.184 299.876 487.852 299.544C487.52 299.212 487.122 299.046 486.658 299.046C486.194 299.046 485.796 299.212 485.464 299.544C485.132 299.876 484.966 300.267 484.966 300.716ZM484.754 305.726C484.754 306.249 484.935 306.698 485.296 307.074C485.662 307.445 486.106 307.63 486.629 307.63C487.146 307.63 487.588 307.447 487.955 307.081C488.321 306.71 488.504 306.266 488.504 305.748C488.504 305.226 488.321 304.781 487.955 304.415C487.588 304.049 487.146 303.866 486.629 303.866C486.116 303.866 485.674 304.049 485.303 304.415C484.937 304.781 484.754 305.218 484.754 305.726Z" fill="#878F9B"/>
<path d="M532.879 303.272C532.879 301.471 533.299 300.033 534.139 298.958C534.891 297.987 535.802 297.501 536.871 297.501C537.94 297.501 538.851 297.987 539.603 298.958C540.443 300.033 540.863 301.495 540.863 303.346C540.863 305.191 540.443 306.651 539.603 307.726C538.851 308.697 537.943 309.183 536.878 309.183C535.814 309.183 534.901 308.697 534.139 307.726C533.299 306.651 532.879 305.167 532.879 303.272ZM534.557 303.28C534.557 304.535 534.774 305.577 535.208 306.407C535.643 307.223 536.197 307.63 536.871 307.63C537.54 307.63 538.094 307.223 538.534 306.407C538.973 305.597 539.193 304.574 539.193 303.338C539.193 302.103 538.973 301.078 538.534 300.262C538.094 299.452 537.54 299.046 536.871 299.046C536.207 299.046 535.655 299.452 535.216 300.262C534.776 301.068 534.557 302.074 534.557 303.28ZM544.869 309.388L543.617 308.458L546.319 304.774C546.173 304.793 546.048 304.808 545.946 304.818C545.843 304.828 545.76 304.833 545.697 304.833C544.784 304.833 543.993 304.483 543.324 303.785C542.66 303.092 542.328 302.257 542.328 301.28C542.328 300.24 542.696 299.352 543.434 298.614C544.176 297.872 545.064 297.501 546.1 297.501C547.13 297.501 548.026 297.867 548.788 298.6C549.549 299.327 549.93 300.187 549.93 301.178C549.93 302.057 549.559 303.006 548.817 304.027L544.869 309.388ZM543.99 301.156C543.99 301.766 544.198 302.279 544.613 302.694C545.033 303.114 545.538 303.324 546.129 303.324C546.72 303.324 547.223 303.116 547.638 302.701C548.058 302.281 548.268 301.776 548.268 301.185C548.268 300.594 548.058 300.089 547.638 299.669C547.223 299.254 546.717 299.046 546.122 299.046C545.536 299.046 545.035 299.254 544.62 299.669C544.2 300.089 543.99 300.584 543.99 301.156Z" fill="#878F9B"/>
<path d="M595.761 299.288H593.806L594.743 297.691H597.468V309H595.761V299.288ZM600.683 303.272C600.683 301.471 601.103 300.033 601.943 298.958C602.695 297.987 603.605 297.501 604.675 297.501C605.744 297.501 606.655 297.987 607.407 298.958C608.247 300.033 608.667 301.495 608.667 303.346C608.667 305.191 608.247 306.651 607.407 307.726C606.655 308.697 605.747 309.183 604.682 309.183C603.618 309.183 602.705 308.697 601.943 307.726C601.103 306.651 600.683 305.167 600.683 303.272ZM602.36 303.28C602.36 304.535 602.578 305.577 603.012 306.407C603.447 307.223 604.001 307.63 604.675 307.63C605.344 307.63 605.898 307.223 606.337 306.407C606.777 305.597 606.997 304.574 606.997 303.338C606.997 302.103 606.777 301.078 606.337 300.262C605.898 299.452 605.344 299.046 604.675 299.046C604.011 299.046 603.459 299.452 603.02 300.262C602.58 301.068 602.36 302.074 602.36 303.28Z" fill="#878F9B"/>
<path d="M657.906 299.288H655.95L656.888 297.691H659.612V309H657.906V299.288ZM664.966 299.288H663.011L663.948 297.691H666.673V309H664.966V299.288Z" fill="#878F9B"/>
<path d="M718.4 299.288H716.445L717.382 297.691H720.107V309H718.4V299.288ZM726.164 307.396H730.375V309H722.78L726.706 304.247C727.092 303.773 727.414 303.363 727.673 303.016C727.937 302.669 728.137 302.379 728.273 302.145C728.552 301.686 728.691 301.273 728.691 300.907C728.691 300.379 728.505 299.938 728.134 299.581C727.763 299.225 727.304 299.046 726.757 299.046C725.615 299.046 724.96 299.723 724.794 301.075H723.095C723.369 298.692 724.572 297.501 726.706 297.501C727.736 297.501 728.601 297.828 729.299 298.482C730.002 299.137 730.354 299.947 730.354 300.914C730.354 301.529 730.19 302.132 729.863 302.723C729.697 303.031 729.453 303.397 729.13 303.822C728.813 304.242 728.41 304.74 727.922 305.316L726.164 307.396Z" fill="#878F9B"/>
<path d="M778.849 299.288H776.894L777.831 297.691H780.556V309H778.849V299.288ZM786.84 303.749V302.291C787.562 302.291 788.048 302.21 788.297 302.049C788.742 301.766 788.964 301.312 788.964 300.687C788.964 300.204 788.803 299.811 788.48 299.508C788.163 299.2 787.75 299.046 787.243 299.046C786.769 299.046 786.403 299.161 786.144 299.391C785.895 299.625 785.709 300.021 785.587 300.577H783.888C784.064 299.513 784.425 298.734 784.972 298.241C785.519 297.743 786.283 297.494 787.265 297.494C788.256 297.494 789.064 297.787 789.689 298.373C790.314 298.954 790.626 299.703 790.626 300.621C790.626 301.656 790.216 302.462 789.396 303.038C790.333 303.59 790.802 304.486 790.802 305.726C790.802 306.742 790.46 307.572 789.777 308.216C789.093 308.861 788.217 309.183 787.147 309.183C785.785 309.183 784.774 308.683 784.115 307.682C783.842 307.262 783.668 306.681 783.595 305.938H785.243C785.331 306.485 785.543 306.905 785.88 307.198C786.222 307.486 786.667 307.63 787.213 307.63C787.765 307.63 788.222 307.447 788.583 307.081C788.944 306.705 789.125 306.229 789.125 305.653C789.125 304.891 788.854 304.349 788.312 304.027C787.995 303.841 787.504 303.749 786.84 303.749Z" fill="#878F9B"/>
<path d="M838.9 299.288H836.945L837.882 297.691H840.607V309H838.9V299.288ZM850.304 305.843H851.505V307.396H850.304V309H848.598V307.396H843.046L850.304 296.849V305.843ZM848.598 305.843V302.057L845.99 305.843H848.598Z" fill="#878F9B"/>
<path d="M901.9 299.288H899.945L900.882 297.691H903.607V309H901.9V299.288ZM913.795 299.288H910.309L909.752 301.163C909.835 301.153 909.913 301.146 909.986 301.141C910.064 301.136 910.135 301.134 910.199 301.134C911.297 301.134 912.198 301.505 912.901 302.247C913.609 302.984 913.963 303.929 913.963 305.082C913.963 306.273 913.563 307.254 912.762 308.026C911.961 308.797 910.953 309.183 909.737 309.183C908.238 309.183 907.057 308.48 906.192 307.074L907.481 305.982C907.838 306.588 908.197 307.015 908.558 307.264C908.919 307.508 909.361 307.63 909.884 307.63C910.567 307.63 911.141 307.391 911.605 306.913C912.069 306.419 912.301 305.821 912.301 305.118C912.301 304.396 912.071 303.805 911.612 303.346C911.153 302.872 910.58 302.635 909.891 302.635C909.125 302.635 908.463 302.97 907.906 303.639H907.342L909.122 297.691H913.795V299.288Z" fill="#878F9B"/>
<path d="M961.966 299.288H960.011L960.948 297.691H963.673V309H961.966V299.288ZM971.729 297.296L972.982 298.233L970.279 301.91C970.426 301.891 970.55 301.876 970.653 301.866C970.755 301.856 970.836 301.852 970.895 301.852C971.812 301.852 972.606 302.203 973.275 302.906C973.939 303.6 974.271 304.435 974.271 305.411C974.271 306.446 973.9 307.335 973.158 308.077C972.42 308.814 971.534 309.183 970.499 309.183C969.474 309.183 968.575 308.819 967.804 308.092C967.047 307.364 966.668 306.502 966.668 305.506C966.668 304.613 967.037 303.666 967.774 302.665L971.729 297.296ZM972.608 305.521C972.608 304.92 972.401 304.413 971.986 303.998C971.566 303.578 971.061 303.368 970.47 303.368C969.874 303.368 969.369 303.575 968.954 303.99C968.539 304.405 968.331 304.908 968.331 305.499C968.331 306.09 968.539 306.593 968.954 307.008C969.369 307.423 969.876 307.63 970.477 307.63C971.063 307.63 971.563 307.423 971.979 307.008C972.398 306.588 972.608 306.092 972.608 305.521Z" fill="#878F9B"/>
<path d="M1020 299.288H1018.05L1018.98 297.691H1021.71V309H1020V299.288ZM1030.16 299.288H1024.58V297.691H1033.01L1025.88 309.388L1024.52 308.531L1030.16 299.288Z" fill="#878F9B"/>
<path d="M1079.87 299.288H1077.92L1078.85 297.691H1081.58V309H1079.87V299.288ZM1086.54 303.119C1085.71 302.533 1085.3 301.734 1085.3 300.724C1085.3 299.806 1085.61 299.039 1086.24 298.424C1086.88 297.809 1087.67 297.501 1088.61 297.501C1089.55 297.501 1090.33 297.809 1090.95 298.424C1091.58 299.034 1091.89 299.803 1091.89 300.731C1091.89 301.703 1091.48 302.496 1090.65 303.111C1091.11 303.355 1091.46 303.712 1091.72 304.181C1091.99 304.649 1092.12 305.177 1092.12 305.763C1092.12 306.764 1091.79 307.584 1091.14 308.224C1090.48 308.863 1089.64 309.183 1088.62 309.183C1087.58 309.183 1086.72 308.861 1086.04 308.216C1085.35 307.572 1085.01 306.761 1085.01 305.785C1085.01 304.515 1085.52 303.626 1086.54 303.119ZM1086.9 300.716C1086.9 301.2 1087.07 301.605 1087.39 301.932C1087.73 302.264 1088.13 302.43 1088.59 302.43C1089.06 302.43 1089.46 302.264 1089.79 301.932C1090.12 301.6 1090.29 301.202 1090.29 300.738C1090.29 300.274 1090.12 299.876 1089.79 299.544C1089.46 299.212 1089.06 299.046 1088.59 299.046C1088.13 299.046 1087.73 299.212 1087.4 299.544C1087.07 299.876 1086.9 300.267 1086.9 300.716ZM1086.69 305.726C1086.69 306.249 1086.87 306.698 1087.23 307.074C1087.6 307.445 1088.04 307.63 1088.56 307.63C1089.08 307.63 1089.52 307.447 1089.89 307.081C1090.26 306.71 1090.44 306.266 1090.44 305.748C1090.44 305.226 1090.26 304.781 1089.89 304.415C1089.52 304.049 1089.08 303.866 1088.56 303.866C1088.05 303.866 1087.61 304.049 1087.24 304.415C1086.87 304.781 1086.69 305.218 1086.69 305.726Z" fill="#878F9B"/>
<path fill-rule="evenodd" clip-rule="evenodd" d="M55.0427 207.5L114.675 175L176.328 194.5L237.476 136.5L297.108 64.5L358.761 80.5L417.888 130L479.541 161L540.184 128L598.805 115.5L660.964 57L721.607 102.5L783.26 175L842.892 198L905.051 132.25L964.177 36.5L1023.81 80.5L1085.46 87.5V281.016H55.0427" fill="#456AEB" fill-opacity="0.1"/>
<path d="M56.0427 208.5L115.675 176L177.328 195.5L238.476 137.5L298.108 65.5L359.761 81.5L418.888 131L480.541 162L541.184 129L599.805 116.5L661.964 58L722.607 103.5L784.26 176L843.892 199L906.051 133.25L965.177 37.5L1024.81 81.5L1086.46 88.5" stroke="#456AEB" stroke-width="2"/>
<path d="M59.0427 208C59.0427 209.657 57.6996 211 56.0427 211C54.3859 211 53.0427 209.657 53.0427 208C53.0427 206.343 54.3859 205 56.0427 205C57.6996 205 59.0427 206.343 59.0427 208Z" fill="white" stroke="#456AEB" stroke-width="2"/>
<path d="M118.675 177C118.675 178.657 117.331 180 115.675 180C114.018 180 112.675 178.657 112.675 177C112.675 175.343 114.018 174 115.675 174C117.331 174 118.675 175.343 118.675 177Z" fill="white" stroke="#456AEB" stroke-width="2"/>
<path d="M180.328 195C180.328 196.657 178.985 198 177.328 198C175.671 198 174.328 196.657 174.328 195C174.328 193.343 175.671 192 177.328 192C178.985 192 180.328 193.343 180.328 195Z" fill="white" stroke="#456AEB" stroke-width="2"/>
<path d="M301.613 66C301.613 67.6569 300.27 69 298.613 69C296.956 69 295.613 67.6569 295.613 66C295.613 64.3431 296.956 63 298.613 63C300.27 63 301.613 64.3431 301.613 66Z" fill="white" stroke="#456AEB" stroke-width="2"/>
<path d="M239.96 139C239.96 140.657 238.617 142 236.96 142C235.303 142 233.96 140.657 233.96 139C233.96 137.343 235.303 136 236.96 136C238.617 136 239.96 137.343 239.96 139Z" fill="white" stroke="#456AEB" stroke-width="2"/>
<path d="M362.256 81C362.256 82.6569 360.913 84 359.256 84C357.599 84 356.256 82.6569 356.256 81C356.256 79.3431 357.599 78 359.256 78C360.913 78 362.256 79.3431 362.256 81Z" fill="white" stroke="#456AEB" stroke-width="2"/>
<path d="M421.888 131C421.888 132.657 420.545 134 418.888 134C417.231 134 415.888 132.657 415.888 131C415.888 129.343 417.231 128 418.888 128C420.545 128 421.888 129.343 421.888 131Z" fill="white" stroke="#456AEB" stroke-width="2"/>
<path d="M484.552 162C484.552 163.657 483.209 165 481.552 165C479.895 165 478.552 163.657 478.552 162C478.552 160.343 479.895 159 481.552 159C483.209 159 484.552 160.343 484.552 162Z" fill="white" stroke="#456AEB" stroke-width="2"/>
<path d="M544.184 129C544.184 130.657 542.841 132 541.184 132C539.527 132 538.184 130.657 538.184 129C538.184 127.343 539.527 126 541.184 126C542.841 126 544.184 127.343 544.184 129Z" fill="white" stroke="#456AEB" stroke-width="2"/>
<path d="M602.805 116C602.805 117.657 601.462 119 599.805 119C598.148 119 596.805 117.657 596.805 116C596.805 114.343 598.148 113 599.805 113C601.462 113 602.805 114.343 602.805 116Z" fill="white" stroke="#456AEB" stroke-width="2"/>
<path d="M665.469 59C665.469 60.6569 664.126 62 662.469 62C660.812 62 659.469 60.6569 659.469 59C659.469 57.3431 660.812 56 662.469 56C664.126 56 665.469 57.3431 665.469 59Z" fill="white" stroke="#456AEB" stroke-width="2"/>
<path d="M726.112 104C726.112 105.657 724.769 107 723.112 107C721.455 107 720.112 105.657 720.112 104C720.112 102.343 721.455 101 723.112 101C724.769 101 726.112 102.343 726.112 104Z" fill="white" stroke="#456AEB" stroke-width="2"/>
<path d="M785.744 175C785.744 176.657 784.401 178 782.744 178C781.087 178 779.744 176.657 779.744 175C779.744 173.343 781.087 172 782.744 172C784.401 172 785.744 173.343 785.744 175Z" fill="white" stroke="#456AEB" stroke-width="2"/>
<path d="M846.386 198C846.386 199.657 845.043 201 843.386 201C841.73 201 840.386 199.657 840.386 198C840.386 196.343 841.73 195 843.386 195C845.043 195 846.386 196.343 846.386 198Z" fill="white" stroke="#456AEB" stroke-width="2"/>
<path d="M909.051 133C909.051 134.657 907.707 136 906.051 136C904.394 136 903.051 134.657 903.051 133C903.051 131.343 904.394 130 906.051 130C907.707 130 909.051 131.343 909.051 133Z" fill="white" stroke="#456AEB" stroke-width="2"/>
<path d="M968.682 38C968.682 39.6569 967.339 41 965.682 41C964.026 41 962.682 39.6569 962.682 38C962.682 36.3431 964.026 35 965.682 35C967.339 35 968.682 36.3431 968.682 38Z" fill="white" stroke="#456AEB" stroke-width="2"/>
<path d="M1027.3 81C1027.3 82.6569 1025.96 84 1024.3 84C1022.65 84 1021.3 82.6569 1021.3 81C1021.3 79.3431 1022.65 78 1024.3 78C1025.96 78 1027.3 79.3431 1027.3 81Z" fill="white" stroke="#456AEB" stroke-width="2"/>
<path d="M1088.96 89C1088.96 90.6569 1087.61 92 1085.96 92C1084.3 92 1082.96 90.6569 1082.96 89C1082.96 87.3431 1084.3 86 1085.96 86C1087.61 86 1088.96 87.3431 1088.96 89Z" fill="white" stroke="#456AEB" stroke-width="2"/>
</svg>
