<svg width="674" height="119" viewBox="0 0 674 119" fill="none" xmlns="http://www.w3.org/2000/svg">
<path d="M172.288 49.5958H187.808V116.43H172.288V109.431C165.924 115.378 159.08 118.352 151.755 118.352C142.506 118.352 134.861 115.012 128.817 108.333C122.819 101.517 119.821 93.0083 119.821 82.8073C119.821 72.7889 122.819 64.4398 128.817 57.7615C134.815 51.0823 142.323 47.7423 151.342 47.7423C159.125 47.7423 166.107 50.9449 172.288 57.3492V49.5958ZM135.616 82.8073C135.616 89.2116 137.333 94.426 140.766 98.4523C144.292 102.524 148.732 104.559 154.089 104.559C159.812 104.559 164.436 102.592 167.961 98.6576C171.487 94.5861 173.249 89.4169 173.249 83.15C173.249 76.8831 171.487 71.7139 167.961 67.6424C164.436 63.6622 159.858 61.6721 154.227 61.6721C148.916 61.6721 144.475 63.6848 140.904 67.7111C137.378 71.7818 135.616 76.8144 135.616 82.8073ZM207.311 49.5958H222.763V55.5653C225.601 52.5915 228.119 50.5561 230.317 49.4584C232.561 48.3146 235.216 47.7423 238.283 47.7423C242.358 47.7423 246.616 49.0696 251.056 51.7225L243.983 65.8584C241.053 63.7536 238.192 62.7019 235.399 62.7019C226.975 62.7019 222.763 69.0602 222.763 81.7775V116.43H207.311V49.5958ZM280.93 64.0057V116.43H265.478V64.0057H258.885V49.5958H265.478V25.0989H280.93V49.5958H292.948V64.0057H280.93ZM318.906 0.533203V57.3492C325.087 50.9449 332.091 47.7423 339.92 47.7423C348.94 47.7423 356.448 51.1049 362.445 57.8294C368.443 64.5085 371.442 72.8342 371.442 82.8073C371.442 93.0996 368.42 101.609 362.377 108.333C356.379 115.012 348.802 118.352 339.645 118.352C331.908 118.352 324.995 115.378 318.906 109.431V116.43H303.455V0.533203H318.906ZM355.647 83.4935C355.647 77.0884 353.907 71.8739 350.427 67.8477C346.902 63.7309 342.484 61.6721 337.173 61.6721C331.497 61.6721 326.873 63.6622 323.301 67.6424C319.776 71.5765 318.014 76.6996 318.014 83.0126C318.014 89.509 319.753 94.7009 323.233 98.5889C326.712 102.569 331.29 104.559 336.968 104.559C342.324 104.559 346.765 102.569 350.29 98.5889C353.861 94.5635 355.647 89.5317 355.647 83.4935ZM384.627 82.5324C384.627 72.8803 388.084 64.6686 394.997 57.8981C401.91 51.1276 410.334 47.7423 420.269 47.7423C430.249 47.7423 438.719 51.151 445.678 57.9668C452.546 64.7833 455.979 73.1543 455.979 83.0813C455.979 93.0996 452.522 101.494 445.61 108.264C438.65 114.989 430.112 118.352 419.994 118.352C409.967 118.352 401.566 114.92 394.791 108.058C388.015 101.288 384.627 92.7795 384.627 82.5324ZM400.422 82.8073C400.422 89.4856 402.208 94.7696 405.779 98.6576C409.442 102.592 414.271 104.559 420.269 104.559C426.312 104.559 431.142 102.615 434.759 98.7263C438.376 94.8383 440.184 89.6457 440.184 83.15C440.184 76.6543 438.376 71.4617 434.759 67.5736C431.096 63.6396 426.266 61.6721 420.269 61.6721C414.362 61.6721 409.578 63.6396 405.916 67.5736C402.253 71.5077 400.422 76.5856 400.422 82.8073ZM521.7 49.5958H537.22V116.43H521.7V109.431C515.336 115.378 508.492 118.352 501.166 118.352C491.918 118.352 484.273 115.012 478.23 108.333C472.232 101.517 469.233 93.0083 469.233 82.8073C469.233 72.7889 472.232 64.4398 478.23 57.7615C484.227 51.0823 491.735 47.7423 500.755 47.7423C508.538 47.7423 515.519 50.9449 521.7 57.3492V49.5958ZM485.028 82.8073C485.028 89.2116 486.745 94.426 490.179 98.4523C493.704 102.524 498.145 104.559 503.501 104.559C509.224 104.559 513.849 102.592 517.373 98.6576C520.899 94.5861 522.661 89.4169 522.661 83.15C522.661 76.8831 520.899 71.7139 517.373 67.6424C513.849 63.6622 509.27 61.6721 503.639 61.6721C498.328 61.6721 493.887 63.6848 490.316 67.7111C486.791 71.7826 485.028 76.8144 485.028 82.8073ZM556.724 49.5958H572.175V55.5653C575.014 52.5915 577.532 50.5561 579.729 49.4584C581.973 48.3146 584.628 47.7423 587.695 47.7423C591.77 47.7423 596.028 49.0696 600.469 51.7225L593.395 65.8584C590.465 63.7536 587.604 62.7019 584.811 62.7019C576.387 62.7019 572.175 69.0602 572.175 81.7775V116.43H556.724V49.5958ZM657.674 0.533203H673.194V116.43H657.674V109.431C651.585 115.378 644.695 118.352 637.003 118.352C627.847 118.352 620.246 115.012 614.203 108.333C608.206 101.517 605.207 93.0083 605.207 82.8073C605.207 72.8342 608.206 64.5085 614.203 57.8294C620.155 51.1049 627.64 47.7423 636.66 47.7423C644.489 47.7423 651.494 50.9449 657.674 57.3492V0.533203ZM621.002 82.8073C621.002 89.2116 622.719 94.426 626.153 98.4523C629.678 102.524 634.119 104.559 639.476 104.559C645.198 104.559 649.822 102.592 653.348 98.6576C656.872 94.5861 658.635 89.4169 658.635 83.15C658.635 76.8831 656.872 71.7139 653.348 67.6424C649.822 63.6622 645.244 61.6721 639.613 61.6721C634.302 61.6721 629.861 63.6848 626.29 67.7111C622.765 71.7826 621.002 76.8144 621.002 82.8073Z" fill="white"/>
<path fill-rule="evenodd" clip-rule="evenodd" d="M35.8525 27.7394L46.9142 0L57.976 27.7394L81.5666 86.8977C74.0497 80.7433 64.843 76.5505 54.7419 75.1081L46.9142 55.4786L39.0866 75.1081C28.9853 76.5505 19.7789 80.7433 12.2617 86.8977L35.8525 27.7394Z" fill="#325AE7"/>
<path fill-rule="evenodd" clip-rule="evenodd" d="M71.9759 118.351C67.2188 109.316 57.7804 103.161 46.9141 103.161C36.0477 103.161 26.6094 109.316 21.8522 118.351H0C5.77369 97.7397 24.5913 82.6328 46.9141 82.6328C69.2367 82.6328 88.0543 97.7397 93.8281 118.351H71.9759Z" fill="#456AEB"/>
</svg>
