<svg width="374" height="84" viewBox="0 0 374 84" fill="none" xmlns="http://www.w3.org/2000/svg">
<path fill-rule="evenodd" clip-rule="evenodd" d="M1 58.6579L11.7641 47.8896L22.8931 54.3505L33.9308 35.1333L44.6949 11.2773L55.8239 16.5786L66.4968 32.9796L77.6258 43.2509L88.5723 32.3169L99.154 28.1753L110.374 8.79232L121.321 23.8679L132.45 47.8896L143.214 55.5102L154.434 33.7251L165.107 2L175.871 16.5786L187 18.898V83.0161H1" fill="#31BA7E" fill-opacity="0.1"/>
<path d="M1 58.9889L11.7641 48.2206L22.8931 54.6816L33.9308 35.4643L44.6949 11.6084L55.8239 16.9097L66.4968 33.3106L77.6258 43.582L88.5723 32.648L99.154 28.5063L110.374 9.12337L121.321 24.199L132.45 48.2206L143.214 55.8413L154.434 34.0561L165.107 2.33105L175.871 16.9097L187.348 19.229" stroke="#31BA7E" stroke-width="2"/>
<path fill-rule="evenodd" clip-rule="evenodd" d="M373 58.6579L362.236 47.8896L351.107 54.3505L340.069 35.1333L329.305 11.2773L318.176 16.5786L307.503 32.9796L296.374 43.2509L285.428 32.3169L274.846 28.1753L263.626 8.79232L252.679 23.8679L241.55 47.8896L230.786 55.5102L219.566 33.7251L208.893 2L198.129 16.5786L187 18.898V83.0161H373" fill="#31BA7E" fill-opacity="0.1"/>
<path d="M373 58.9889L362.236 48.2206L351.107 54.6816L340.069 35.4643L329.305 11.6084L318.176 16.9097L307.503 33.3106L296.374 43.582L285.428 32.648L274.846 28.5063L263.626 9.12337L252.679 24.199L241.55 48.2206L230.786 55.8413L219.566 34.0561L208.893 2.33105L198.129 16.9097L186.652 19.229" stroke="#31BA7E" stroke-width="2"/>
</svg>
