<svg width="61" height="61" viewBox="0 0 61 61" fill="none" xmlns="http://www.w3.org/2000/svg">
<path fill-rule="evenodd" clip-rule="evenodd" d="M0 30.24C0 46.9411 13.5389 60.48 30.24 60.48C46.9411 60.48 60.48 46.9411 60.48 30.24C60.48 13.5389 46.9411 0 30.24 0C13.5389 0 0 13.5389 0 30.24ZM52.92 30.24C52.92 42.7658 42.7658 52.92 30.24 52.92C17.7142 52.92 7.56 42.7658 7.56 30.24C7.56 17.7142 17.7142 7.56 30.24 7.56C42.7658 7.56 52.92 17.7142 52.92 30.24Z" fill="#F6F7F9"/>
<path d="M52.0133 9.25469C53.4621 10.7577 53.4183 13.1506 51.9153 14.5995C50.4123 16.0484 48.0193 16.0045 46.5705 14.5016C42.32 10.0924 36.4864 7.56 30.24 7.56C28.1523 7.56 26.46 5.86764 26.46 3.78C26.46 1.69236 28.1523 0 30.24 0C38.5608 0 46.3522 3.38229 52.0133 9.25469Z" fill="#3E4E6C"/>
<mask id="mask0" mask-type="alpha" maskUnits="userSpaceOnUse" x="26" y="0" width="28" height="16">
<path d="M52.0133 9.25469C53.4621 10.7577 53.4183 13.1506 51.9153 14.5995C50.4123 16.0484 48.0193 16.0045 46.5705 14.5016C42.32 10.0924 36.4864 7.56 30.24 7.56C28.1523 7.56 26.46 5.86764 26.46 3.78C26.46 1.69236 28.1523 0 30.24 0C38.5608 0 46.3522 3.38229 52.0133 9.25469Z" fill="white"/>
</mask>
<g mask="url(#mask0)">
<rect width="60.48" height="60.48" fill="#456AEB"/>
</g>
</svg>
